# xmcd CD database file
#
# Track frame offsets:
#	150
#	22575
#	46188
#	60874
#	78427
#	101731
#	116595
#	132073
#	155307
#	181369
#	205665
#	222138
#
# Disc length: 3240 seconds
#
# Revision: 0
# Processed by: cddbd v1.5PL3 Copyright (c) Steve Scherf et al.
# Submitted via: CDex 1.50beta10
#
DISCID=8b0ca60c
DTITLE=Little Jonny And The Giants - Windin'
DYEAR=1998
DGENRE=Blues
TTITLE0=One Of These Mornings
TTITLE1=Rollin' And Tumblin'
TTITLE2=Let Bygones Be Bygones
TTITLE3=Rock Me In Your Arms
TTITLE4=Barstool Boogie
TTITLE5=Wishy-Washy Woman
TTITLE6=Stop Puting Me On
TTITLE7=Tijuana
TTITLE8=Trouble No More
TTITLE9=Tough Luck
TTITLE10=Wait Baby
TTITLE11=Freight Train
EXTD=YEAR: 1998
EXTT0=
EXTT1=
EXTT2=
EXTT3=
EXTT4=
EXTT5=
EXTT6=
EXTT7=
EXTT8=
EXTT9=
EXTT10=
EXTT11=
PLAYORDER=
